<?xml version="1.0" encoding="us-ascii" standalone="no"?><svg xmlns="http://www.w3.org/2000/svg" xmlns:xlink="http://www.w3.org/1999/xlink" contentStyleType="text/css" height="183px" preserveAspectRatio="none" style="width:191px;height:183px;background:#FFFFFF;" version="1.1" viewBox="0 0 191 183" width="191px" zoomAndPan="magnify"><defs/><g><!--class User--><g id="elem_User"><rect codeLine="3" fill="#F1F1F1" height="162.4075" id="User" rx="2.5" ry="2.5" style="stroke:#181818;stroke-width:0.5;" width="170" x="7" y="7"/><ellipse cx="72.25" cy="23" fill="#ADD1B2" rx="11" ry="11" style="stroke:#181818;stroke-width:1.0;"/><path d="M67.25,24.1563 C67.25,26.6563 69.3906,28.4688 72.3125,28.4688 C73.5469,28.4688 74.7188,28.1719 75.4688,27.6563 C76.0781,27.2344 76.4063,26.8125 76.4063,26.4063 C76.4063,25.9375 75.9844,25.5313 75.4844,25.5313 C75.25,25.5313 75.0313,25.6094 74.8281,25.8125 C74.3906,26.25 74.3906,26.25 74.2188,26.3438 C73.7656,26.5781 73.125,26.7188 72.3594,26.7188 C70.3594,26.7188 69.0781,25.7031 69.0781,24.125 L69.0781,23.0781 C69.0781,21.375 70.2969,20.1719 72,20.1719 C72.5781,20.1719 73.1563,20.3125 73.625,20.5625 C74.0938,20.8281 74.2656,21.0156 74.3281,21.375 C74.4531,22.0469 74.7031,22.2969 75.2344,22.2969 C75.5156,22.2969 75.7969,22.1563 75.9844,21.9375 C76.1094,21.7656 76.1563,21.5938 76.1563,21.1563 L76.1563,19.7969 C76.1563,19.375 76.1406,19.2344 76.0156,19.0625 C75.8438,18.8125 75.5625,18.6563 75.2344,18.6563 C74.9219,18.6563 74.7188,18.7656 74.5,19.0313 C73.3281,18.5313 72.8906,18.4219 71.9375,18.4219 C69.2656,18.4219 67.25,20.4375 67.25,23.0625 L67.25,24.1563 Z " fill="#000000"/><text fill="#000000" font-family="sans-serif" font-size="14" lengthAdjust="spacing" textLength="31" x="92.75" y="28.432">User</text><line style="stroke:#181818;stroke-width:0.5;" x1="8" x2="176" y1="39" y2="39"/><ellipse cx="18" cy="54.034" fill="none" rx="3" ry="3" style="stroke:#038048;stroke-width:1.0;"/><text fill="#000000" font-family="sans-serif" font-size="14" lengthAdjust="spacing" textLength="39" x="27" y="57.9659">id: int</text><ellipse cx="18" cy="73.1019" fill="none" rx="3" ry="3" style="stroke:#038048;stroke-width:1.0;"/><text fill="#000000" font-family="sans-serif" font-size="14" lengthAdjust="spacing" textLength="86" x="27" y="77.0339">name: string</text><ellipse cx="18" cy="92.1698" fill="none" rx="3" ry="3" style="stroke:#038048;stroke-width:1.0;"/><text fill="#000000" font-family="sans-serif" font-size="14" lengthAdjust="spacing" textLength="85" x="27" y="96.1018">email: string</text><ellipse cx="18" cy="111.2377" fill="none" rx="3" ry="3" style="stroke:#038048;stroke-width:1.0;"/><text fill="#000000" font-family="sans-serif" font-size="14" lengthAdjust="spacing" textLength="113" x="27" y="115.1697">password: string</text><ellipse cx="18" cy="130.3056" fill="none" rx="3" ry="3" style="stroke:#038048;stroke-width:1.0;"/><text fill="#000000" font-family="sans-serif" font-size="14" lengthAdjust="spacing" textLength="138" x="27" y="134.2376">created_at: datetime</text><ellipse cx="18" cy="149.3735" fill="none" rx="3" ry="3" style="stroke:#038048;stroke-width:1.0;"/><text fill="#000000" font-family="sans-serif" font-size="14" lengthAdjust="spacing" textLength="144" x="27" y="153.3055">updated_at: datetime</text><line style="stroke:#181818;stroke-width:0.5;" x1="8" x2="176" y1="161.4075" y2="161.4075"/></g><!--SRC=[PSin2e0m38NXtLDazmQvXxE49aYWhIM9E8XtjzqARl_xuALCxh2v63mBmAgCe3L6LYg2u65QZx6baEOPMh_Uf_5ioOH2UAT0u5wXHOPVZV_-VW00]--></g></svg>