<?xml version="1.0" encoding="us-ascii" standalone="no"?><svg xmlns="http://www.w3.org/2000/svg" xmlns:xlink="http://www.w3.org/1999/xlink" contentStyleType="text/css" height="195px" preserveAspectRatio="none" style="width:818px;height:195px;background:#FFFFFF;" version="1.1" viewBox="0 0 818 195" width="818px" zoomAndPan="magnify"><defs/><g><!--cluster klotski--><g id="cluster_klotski"><path d="M8.5,6.602 L51.5,6.602 A3.75,3.75 0 0 1 54,9.102 L61,31.6699 L808.5,31.6699 A2.5,2.5 0 0 1 811,34.1699 L811,186.102 A2.5,2.5 0 0 1 808.5,188.602 L8.5,188.602 A2.5,2.5 0 0 1 6,186.102 L6,9.102 A2.5,2.5 0 0 1 8.5,6.602 " fill="none" style="stroke:#000000;stroke-width:1.5;"/><line style="stroke:#000000;stroke-width:1.5;" x1="6" x2="61" y1="31.6699" y2="31.6699"/><text fill="#000000" font-family="sans-serif" font-size="14" font-weight="bold" lengthAdjust="spacing" textLength="42" x="10" y="23.5679">klotski</text></g><!--cluster game--><g id="cluster_game"><path d="M536.5,52.602 L575.5,52.602 A3.75,3.75 0 0 1 578,55.102 L585,77.6699 L784.5,77.6699 A2.5,2.5 0 0 1 787,80.1699 L787,162.102 A2.5,2.5 0 0 1 784.5,164.602 L536.5,164.602 A2.5,2.5 0 0 1 534,162.102 L534,55.102 A2.5,2.5 0 0 1 536.5,52.602 " fill="none" style="stroke:#000000;stroke-width:1.5;"/><line style="stroke:#000000;stroke-width:1.5;" x1="534" x2="585" y1="77.6699" y2="77.6699"/><text fill="#000000" font-family="sans-serif" font-size="14" font-weight="bold" lengthAdjust="spacing" textLength="38" x="538" y="69.5679">game</text></g><!--cluster gui--><g id="cluster_gui"><path d="M32.5,52.602 L55.5,52.602 A3.75,3.75 0 0 1 58,55.102 L65,77.6699 L507.5,77.6699 A2.5,2.5 0 0 1 510,80.1699 L510,162.102 A2.5,2.5 0 0 1 507.5,164.602 L32.5,164.602 A2.5,2.5 0 0 1 30,162.102 L30,55.102 A2.5,2.5 0 0 1 32.5,52.602 " fill="none" style="stroke:#000000;stroke-width:1.5;"/><line style="stroke:#000000;stroke-width:1.5;" x1="30" x2="65" y1="77.6699" y2="77.6699"/><text fill="#000000" font-family="sans-serif" font-size="14" font-weight="bold" lengthAdjust="spacing" textLength="22" x="34" y="69.5679">gui</text></g><path d="M720,90.602 L754,90.602 A3.75,3.75 0 0 1 756.5,93.102 L763.5,115.6699 L768,115.6699 A2.5,2.5 0 0 1 770.5,118.1699 L770.5,146.2378 A2.5,2.5 0 0 1 768,148.7378 L720,148.7378 A2.5,2.5 0 0 1 717.5,146.2378 L717.5,93.102 A2.5,2.5 0 0 1 720,90.602 " fill="#F1F1F1" style="stroke:#181818;stroke-width:0.5;"/><line style="stroke:#181818;stroke-width:0.5;" x1="717.5" x2="763.5" y1="115.6699" y2="115.6699"/><text fill="#000000" font-family="sans-serif" font-size="14" lengthAdjust="spacing" textLength="33" x="721.5" y="107.5679">state</text><path d="M630,90.602 L666,90.602 A3.75,3.75 0 0 1 668.5,93.102 L675.5,115.6699 L680,115.6699 A2.5,2.5 0 0 1 682.5,118.1699 L682.5,146.2378 A2.5,2.5 0 0 1 680,148.7378 L630,148.7378 A2.5,2.5 0 0 1 627.5,146.2378 L627.5,93.102 A2.5,2.5 0 0 1 630,90.602 " fill="#F1F1F1" style="stroke:#181818;stroke-width:0.5;"/><line style="stroke:#181818;stroke-width:0.5;" x1="627.5" x2="675.5" y1="115.6699" y2="115.6699"/><text fill="#000000" font-family="sans-serif" font-size="14" lengthAdjust="spacing" textLength="35" x="631.5" y="107.5679">block</text><path d="M552.5,90.602 L575.5,90.602 A3.75,3.75 0 0 1 578,93.102 L585,115.6699 L589.5,115.6699 A2.5,2.5 0 0 1 592,118.1699 L592,146.2378 A2.5,2.5 0 0 1 589.5,148.7378 L552.5,148.7378 A2.5,2.5 0 0 1 550,146.2378 L550,93.102 A2.5,2.5 0 0 1 552.5,90.602 " fill="#F1F1F1" style="stroke:#181818;stroke-width:0.5;"/><line style="stroke:#181818;stroke-width:0.5;" x1="550" x2="585" y1="115.6699" y2="115.6699"/><text fill="#000000" font-family="sans-serif" font-size="14" lengthAdjust="spacing" textLength="22" x="554" y="107.5679">util</text><path d="M424.5,90.602 L477.5,90.602 A3.75,3.75 0 0 1 480,93.102 L487,115.6699 L491.5,115.6699 A2.5,2.5 0 0 1 494,118.1699 L494,146.2378 A2.5,2.5 0 0 1 491.5,148.7378 L424.5,148.7378 A2.5,2.5 0 0 1 422,146.2378 L422,93.102 A2.5,2.5 0 0 1 424.5,90.602 " fill="#F1F1F1" style="stroke:#181818;stroke-width:0.5;"/><line style="stroke:#181818;stroke-width:0.5;" x1="422" x2="487" y1="115.6699" y2="115.6699"/><text fill="#000000" font-family="sans-serif" font-size="14" lengthAdjust="spacing" textLength="52" x="426" y="107.5679">screens</text><path d="M328,90.602 L370,90.602 A3.75,3.75 0 0 1 372.5,93.102 L379.5,115.6699 L384,115.6699 A2.5,2.5 0 0 1 386.5,118.1699 L386.5,146.2378 A2.5,2.5 0 0 1 384,148.7378 L328,148.7378 A2.5,2.5 0 0 1 325.5,146.2378 L325.5,93.102 A2.5,2.5 0 0 1 328,90.602 " fill="#F1F1F1" style="stroke:#181818;stroke-width:0.5;"/><line style="stroke:#181818;stroke-width:0.5;" x1="325.5" x2="379.5" y1="115.6699" y2="115.6699"/><text fill="#000000" font-family="sans-serif" font-size="14" lengthAdjust="spacing" textLength="41" x="329.5" y="107.5679">actors</text><path d="M214.5,90.602 L273.5,90.602 A3.75,3.75 0 0 1 276,93.102 L283,115.6699 L287.5,115.6699 A2.5,2.5 0 0 1 290,118.1699 L290,146.2378 A2.5,2.5 0 0 1 287.5,148.7378 L214.5,148.7378 A2.5,2.5 0 0 1 212,146.2378 L212,93.102 A2.5,2.5 0 0 1 214.5,90.602 " fill="#F1F1F1" style="stroke:#181818;stroke-width:0.5;"/><line style="stroke:#181818;stroke-width:0.5;" x1="212" x2="283" y1="115.6699" y2="115.6699"/><text fill="#000000" font-family="sans-serif" font-size="14" lengthAdjust="spacing" textLength="58" x="216" y="107.5679">listeners</text><path d="M126,90.602 L160,90.602 A3.75,3.75 0 0 1 162.5,93.102 L169.5,115.6699 L174,115.6699 A2.5,2.5 0 0 1 176.5,118.1699 L176.5,146.2378 A2.5,2.5 0 0 1 174,148.7378 L126,148.7378 A2.5,2.5 0 0 1 123.5,146.2378 L123.5,93.102 A2.5,2.5 0 0 1 126,90.602 " fill="#F1F1F1" style="stroke:#181818;stroke-width:0.5;"/><line style="stroke:#181818;stroke-width:0.5;" x1="123.5" x2="169.5" y1="115.6699" y2="115.6699"/><text fill="#000000" font-family="sans-serif" font-size="14" lengthAdjust="spacing" textLength="33" x="127.5" y="107.5679">state</text><path d="M48.5,90.602 L71.5,90.602 A3.75,3.75 0 0 1 74,93.102 L81,115.6699 L85.5,115.6699 A2.5,2.5 0 0 1 88,118.1699 L88,146.2378 A2.5,2.5 0 0 1 85.5,148.7378 L48.5,148.7378 A2.5,2.5 0 0 1 46,146.2378 L46,93.102 A2.5,2.5 0 0 1 48.5,90.602 " fill="#F1F1F1" style="stroke:#181818;stroke-width:0.5;"/><line style="stroke:#181818;stroke-width:0.5;" x1="46" x2="81" y1="115.6699" y2="115.6699"/><text fill="#000000" font-family="sans-serif" font-size="14" lengthAdjust="spacing" textLength="22" x="50" y="107.5679">util</text><!--SRC=[ZO-n3i8m34JtV8MPsFWdOqx5YfDKZJEX_ZiPg0GjYdhZqzETxdhHBDOU87yYuJQtP27CB94dKBJYDIgzGg2U3K-Sq1bzik7gxDzyFHXtAnA7HdErWx3-hZVzDouBaEkmdCNBCbPCgoDZPvsuUlP9Dzy0]--></g></svg>