<?xml version="1.0" encoding="us-ascii" standalone="no"?><svg xmlns="http://www.w3.org/2000/svg" xmlns:xlink="http://www.w3.org/1999/xlink" contentStyleType="text/css" height="847px" preserveAspectRatio="none" style="width:967px;height:847px;background:#27262B;" version="1.1" viewBox="0 0 967 847" width="967px" zoomAndPan="magnify"><defs/><g><rect fill="#27262B" height="847" style="stroke:none;stroke-width:1.0;" width="967" x="0" y="0"/><text fill="#ABB2BF" font-family="-apple-system, BlinkMacSystemFont, 'Segoe UI', Roboto, 'Helvetica Neue', Arial, 'Noto Sans', sans-serif, 'Apple Color Emoji', 'Segoe UI Emoji', 'Segoe UI Symbol', 'Noto Color Emoji'" font-size="14" font-weight="bold" lengthAdjust="spacing" textLength="193" x="380" y="25.1074">KLOTSKI: Use-Cases Diagram</text><!--cluster KLOTSKI app--><g id="cluster_KLOTSKI app"><rect fill="#424856" height="720" rx="2.5" ry="2.5" style="stroke:#ABB2BF;stroke-width:1.0;" width="880" x="81" y="46.6211"/><text fill="#ABB2BF" font-family="-apple-system, BlinkMacSystemFont, 'Segoe UI', Roboto, 'Helvetica Neue', Arial, 'Noto Sans', sans-serif, 'Apple Color Emoji', 'Segoe UI Emoji', 'Segoe UI Symbol', 'Noto Color Emoji'" font-size="14" font-weight="bold" lengthAdjust="spacing" textLength="86" x="478" y="63.7285">KLOTSKI app</text></g><g id="elem_Tutorial"><ellipse cx="169.3367" cy="169.3924" fill="#424856" rx="44.3367" ry="16.2713" style="stroke:#61AFEF;stroke-width:0.5;"/><text fill="#ABB2BF" font-family="-apple-system, BlinkMacSystemFont, 'Segoe UI', Roboto, 'Helvetica Neue', Arial, 'Noto Sans', sans-serif, 'Apple Color Emoji', 'Segoe UI Emoji', 'Segoe UI Symbol', 'Noto Color Emoji'" font-size="14" lengthAdjust="spacing" textLength="46" x="143.3367" y="174.1961">Tutorial</text></g><g id="elem_Start game"><ellipse cx="169.4929" cy="237.5549" fill="#424856" rx="59.9929" ry="16.4338" style="stroke:#61AFEF;stroke-width:0.5;"/><text fill="#ABB2BF" font-family="-apple-system, BlinkMacSystemFont, 'Segoe UI', Roboto, 'Helvetica Neue', Arial, 'Noto Sans', sans-serif, 'Apple Color Emoji', 'Segoe UI Emoji', 'Segoe UI Symbol', 'Noto Color Emoji'" font-size="14" lengthAdjust="spacing" textLength="67" x="132.9929" y="242.3586">Start game</text></g><g id="elem_Random Level"><ellipse cx="450.1174" cy="100.4446" fill="#424856" rx="72.1174" ry="16.8235" style="stroke:#61AFEF;stroke-width:0.5;"/><text fill="#ABB2BF" font-family="-apple-system, BlinkMacSystemFont, 'Segoe UI', Roboto, 'Helvetica Neue', Arial, 'Noto Sans', sans-serif, 'Apple Color Emoji', 'Segoe UI Emoji', 'Segoe UI Symbol', 'Noto Color Emoji'" font-size="14" lengthAdjust="spacing" textLength="86" x="404.1174" y="105.2483">Random Level</text></g><g id="elem_Load game"><ellipse cx="450.2387" cy="237.5606" fill="#424856" rx="60.7387" ry="16.4395" style="stroke:#61AFEF;stroke-width:0.5;"/><text fill="#ABB2BF" font-family="-apple-system, BlinkMacSystemFont, 'Segoe UI', Roboto, 'Helvetica Neue', Arial, 'Noto Sans', sans-serif, 'Apple Color Emoji', 'Segoe UI Emoji', 'Segoe UI Symbol', 'Noto Color Emoji'" font-size="14" lengthAdjust="spacing" textLength="68" x="413.2387" y="242.3643">Load game</text></g><g id="elem_Load level"><ellipse cx="450.0187" cy="169.5178" fill="#424856" rx="55.5187" ry="16.3967" style="stroke:#61AFEF;stroke-width:0.5;"/><text fill="#ABB2BF" font-family="-apple-system, BlinkMacSystemFont, 'Segoe UI', Roboto, 'Helvetica Neue', Arial, 'Noto Sans', sans-serif, 'Apple Color Emoji', 'Segoe UI Emoji', 'Segoe UI Symbol', 'Noto Color Emoji'" font-size="14" lengthAdjust="spacing" textLength="61" x="416.5187" y="174.3215">Load level</text></g><g id="elem_Select configuration"><ellipse cx="742.4261" cy="136.4063" fill="#424856" rx="84.4261" ry="19.2852" style="stroke:#61AFEF;stroke-width:0.5;"/><text fill="#ABB2BF" font-family="-apple-system, BlinkMacSystemFont, 'Segoe UI', Roboto, 'Helvetica Neue', Arial, 'Noto Sans', sans-serif, 'Apple Color Emoji', 'Segoe UI Emoji', 'Segoe UI Symbol', 'Noto Color Emoji'" font-size="14" lengthAdjust="spacing" textLength="120" x="679.4261" y="141.21">Select configuration</text></g><g id="elem_Settings"><ellipse cx="169.5726" cy="385.4222" fill="#424856" rx="46.5726" ry="16.3011" style="stroke:#61AFEF;stroke-width:0.5;"/><text fill="#ABB2BF" font-family="-apple-system, BlinkMacSystemFont, 'Segoe UI', Roboto, 'Helvetica Neue', Arial, 'Noto Sans', sans-serif, 'Apple Color Emoji', 'Segoe UI Emoji', 'Segoe UI Symbol', 'Noto Color Emoji'" font-size="14" lengthAdjust="spacing" textLength="49" x="142.0726" y="390.2259">Settings</text></g><g id="elem_Adjust Music Volume "><ellipse cx="449.9552" cy="385.5121" fill="#424856" rx="89.9552" ry="20.391" style="stroke:#61AFEF;stroke-width:0.5;"/><text fill="#ABB2BF" font-family="-apple-system, BlinkMacSystemFont, 'Segoe UI', Roboto, 'Helvetica Neue', Arial, 'Noto Sans', sans-serif, 'Apple Color Emoji', 'Segoe UI Emoji', 'Segoe UI Symbol', 'Noto Color Emoji'" font-size="14" lengthAdjust="spacing" textLength="130" x="379.9552" y="390.3158">Adjust Music Volume</text></g><g id="elem_Adjust Effects Volume "><ellipse cx="450.1672" cy="309.7545" fill="#424856" rx="91.1672" ry="20.6334" style="stroke:#61AFEF;stroke-width:0.5;"/><text fill="#ABB2BF" font-family="-apple-system, BlinkMacSystemFont, 'Segoe UI', Roboto, 'Helvetica Neue', Arial, 'Noto Sans', sans-serif, 'Apple Color Emoji', 'Segoe UI Emoji', 'Segoe UI Symbol', 'Noto Color Emoji'" font-size="14" lengthAdjust="spacing" textLength="133" x="378.6672" y="314.5582">Adjust Effects Volume</text></g><g id="elem_Save game"><ellipse cx="169.7472" cy="597.5491" fill="#424856" rx="59.2472" ry="16.428" style="stroke:#61AFEF;stroke-width:0.5;"/><text fill="#ABB2BF" font-family="-apple-system, BlinkMacSystemFont, 'Segoe UI', Roboto, 'Helvetica Neue', Arial, 'Noto Sans', sans-serif, 'Apple Color Emoji', 'Segoe UI Emoji', 'Segoe UI Symbol', 'Noto Color Emoji'" font-size="14" lengthAdjust="spacing" textLength="66" x="133.7472" y="602.3528">Save game</text></g><g id="elem_Play the game"><ellipse cx="169.4511" cy="528.5113" fill="#424856" rx="72.4511" ry="16.8902" style="stroke:#61AFEF;stroke-width:0.5;"/><text fill="#ABB2BF" font-family="-apple-system, BlinkMacSystemFont, 'Segoe UI', Roboto, 'Helvetica Neue', Arial, 'Noto Sans', sans-serif, 'Apple Color Emoji', 'Segoe UI Emoji', 'Segoe UI Symbol', 'Noto Color Emoji'" font-size="14" lengthAdjust="spacing" textLength="87" x="122.9511" y="533.315">Play the game</text></g><g id="elem_Move block"><ellipse cx="449.976" cy="733.5768" fill="#424856" rx="62.976" ry="16.4557" style="stroke:#61AFEF;stroke-width:0.5;"/><text fill="#ABB2BF" font-family="-apple-system, BlinkMacSystemFont, 'Segoe UI', Roboto, 'Helvetica Neue', Arial, 'Noto Sans', sans-serif, 'Apple Color Emoji', 'Segoe UI Emoji', 'Segoe UI Symbol', 'Noto Color Emoji'" font-size="14" lengthAdjust="spacing" textLength="71" x="411.476" y="738.3805">Move block</text></g><g id="elem_Reset setup"><ellipse cx="449.976" cy="665.5768" fill="#424856" rx="62.976" ry="16.4557" style="stroke:#61AFEF;stroke-width:0.5;"/><text fill="#ABB2BF" font-family="-apple-system, BlinkMacSystemFont, 'Segoe UI', Roboto, 'Helvetica Neue', Arial, 'Noto Sans', sans-serif, 'Apple Color Emoji', 'Segoe UI Emoji', 'Segoe UI Symbol', 'Noto Color Emoji'" font-size="14" lengthAdjust="spacing" textLength="71" x="411.476" y="670.3805">Reset setup</text></g><g id="elem_Undo action"><ellipse cx="449.9594" cy="597.5966" fill="#424856" rx="65.9594" ry="16.4755" style="stroke:#61AFEF;stroke-width:0.5;"/><text fill="#ABB2BF" font-family="-apple-system, BlinkMacSystemFont, 'Segoe UI', Roboto, 'Helvetica Neue', Arial, 'Noto Sans', sans-serif, 'Apple Color Emoji', 'Segoe UI Emoji', 'Segoe UI Symbol', 'Noto Color Emoji'" font-size="14" lengthAdjust="spacing" textLength="75" x="409.4594" y="602.4003">Undo action</text></g><g id="elem_Next best action"><ellipse cx="450.1034" cy="528.8418" fill="#424856" rx="76.6034" ry="17.7207" style="stroke:#61AFEF;stroke-width:0.5;"/><text fill="#ABB2BF" font-family="-apple-system, BlinkMacSystemFont, 'Segoe UI', Roboto, 'Helvetica Neue', Arial, 'Noto Sans', sans-serif, 'Apple Color Emoji', 'Segoe UI Emoji', 'Segoe UI Symbol', 'Noto Color Emoji'" font-size="14" lengthAdjust="spacing" textLength="99" x="397.6034" y="533.6455">Next best action</text></g><g id="elem_Moves counter"><ellipse cx="450.1492" cy="458.8509" fill="#424856" rx="74.1492" ry="17.2298" style="stroke:#61AFEF;stroke-width:0.5;"/><text fill="#ABB2BF" font-family="-apple-system, BlinkMacSystemFont, 'Segoe UI', Roboto, 'Helvetica Neue', Arial, 'Noto Sans', sans-serif, 'Apple Color Emoji', 'Segoe UI Emoji', 'Segoe UI Symbol', 'Noto Color Emoji'" font-size="14" lengthAdjust="spacing" textLength="92" x="401.1492" y="463.6546">Moves counter</text></g><g id="elem_Exit the game"><ellipse cx="169.6283" cy="665.7467" fill="#424856" rx="71.1283" ry="16.6257" style="stroke:#61AFEF;stroke-width:0.5;"/><text fill="#ABB2BF" font-family="-apple-system, BlinkMacSystemFont, 'Segoe UI', Roboto, 'Helvetica Neue', Arial, 'Noto Sans', sans-serif, 'Apple Color Emoji', 'Segoe UI Emoji', 'Segoe UI Symbol', 'Noto Color Emoji'" font-size="14" lengthAdjust="spacing" textLength="83" x="125.1283" y="670.5505">Exit the game</text></g><!--entity Levels--><g id="elem_Levels"><path d="M888,122.6211 C888,112.6211 916.5,112.6211 916.5,112.6211 C916.5,112.6211 945,112.6211 945,122.6211 L945,150.2422 C945,160.2422 916.5,160.2422 916.5,160.2422 C916.5,160.2422 888,160.2422 888,150.2422 L888,122.6211 " fill="#424856" style="stroke:#61AFEF;stroke-width:0.5;"/><path d="M888,122.6211 C888,132.6211 916.5,132.6211 916.5,132.6211 C916.5,132.6211 945,132.6211 945,122.6211 " fill="none" style="stroke:#61AFEF;stroke-width:0.5;"/><text fill="#ABB2BF" font-family="-apple-system, BlinkMacSystemFont, 'Segoe UI', Roboto, 'Helvetica Neue', Arial, 'Noto Sans', sans-serif, 'Apple Color Emoji', 'Segoe UI Emoji', 'Segoe UI Symbol', 'Noto Color Emoji'" font-size="14" lengthAdjust="spacing" textLength="37" x="898" y="151.7285">Levels</text></g><!--entity User--><g id="elem_User"><ellipse cx="20" cy="398.6211" fill="#424856" rx="8" ry="8" style="stroke:#61AFEF;stroke-width:0.5;"/><path d="M20,406.6211 L20,433.6211 M7,414.6211 L33,414.6211 M20,433.6211 L7,448.6211 M20,433.6211 L33,448.6211 " fill="none" style="stroke:#61AFEF;stroke-width:0.5;"/><text fill="#ABB2BF" font-family="-apple-system, BlinkMacSystemFont, 'Segoe UI', Roboto, 'Helvetica Neue', Arial, 'Noto Sans', sans-serif, 'Apple Color Emoji', 'Segoe UI Emoji', 'Segoe UI Symbol', 'Noto Color Emoji'" font-size="14" lengthAdjust="spacing" textLength="28" x="6" y="465.2285">User</text></g><!--entity File--><g id="elem_File"><path d="M716,792.6211 C716,782.6211 742.5,782.6211 742.5,782.6211 C742.5,782.6211 769,782.6211 769,792.6211 L769,820.2422 C769,830.2422 742.5,830.2422 742.5,830.2422 C742.5,830.2422 716,830.2422 716,820.2422 L716,792.6211 " fill="#424856" style="stroke:#61AFEF;stroke-width:0.5;"/><path d="M716,792.6211 C716,802.6211 742.5,802.6211 742.5,802.6211 C742.5,802.6211 769,802.6211 769,792.6211 " fill="none" style="stroke:#61AFEF;stroke-width:0.5;"/><text fill="#ABB2BF" font-family="-apple-system, BlinkMacSystemFont, 'Segoe UI', Roboto, 'Helvetica Neue', Arial, 'Noto Sans', sans-serif, 'Apple Color Emoji', 'Segoe UI Emoji', 'Segoe UI Symbol', 'Noto Color Emoji'" font-size="14" lengthAdjust="spacing" textLength="33" x="726" y="821.7285">saves</text></g><!--link User to Tutorial--><g id="link_User_Tutorial"><path d="M25.54,389.8011 C32.81,332.5411 48.77,230.8311 73,203.6211 C86.81,188.1111 108.18,179.6711 127.2,175.0911 " fill="none" id="User-Tutorial" style="stroke:#61AFEF;stroke-width:1.0;"/></g><!--link User to Start game--><g id="link_User_Start game"><path d="M34.08,408.6711 C44.26,392.7211 58.95,370.3811 73,351.6211 C100.08,315.4511 134.76,275.4611 154,253.7711 " fill="none" id="User-Start game" style="stroke:#61AFEF;stroke-width:1.0;"/></g><!--link Start game to Random Level--><g id="link_Start game_Random Level"><path d="M204.99,224.2311 C217.22,218.7211 230.72,211.7211 242,203.6211 C257.57,192.4411 256.2,183.4811 272,172.6211 C306.63,148.8311 320.08,151.4611 359,135.6211 C374.35,129.3711 391.26,122.7311 406.24,116.9411 " fill="none" id="Start game-to-Random Level" style="stroke:#61AFEF;stroke-width:1.0;stroke-dasharray:7.0,7.0;"/><polygon fill="#61AFEF" points="411.24,115.0011,401.4037,114.5046,406.5744,116.7989,404.2801,121.9696,411.24,115.0011" style="stroke:#61AFEF;stroke-width:1.0;"/><text fill="#ABB2BF" font-family="-apple-system, BlinkMacSystemFont, 'Segoe UI', Roboto, 'Helvetica Neue', Arial, 'Noto Sans', sans-serif, 'Apple Color Emoji', 'Segoe UI Emoji', 'Segoe UI Symbol', 'Noto Color Emoji'" font-size="13" lengthAdjust="spacing" textLength="55" x="273" y="143.6494">&#171;include&#187;</text></g><!--link Start game to Load game--><g id="link_Start game_Load game"><path d="M229.56,237.6211 C274.86,237.6211 337.32,237.6211 384.02,237.6211 " fill="none" id="Start game-to-Load game" style="stroke:#61AFEF;stroke-width:1.0;stroke-dasharray:7.0,7.0;"/><polygon fill="#61AFEF" points="389.06,237.6211,380.06,233.6211,384.06,237.6211,380.06,241.6211,389.06,237.6211" style="stroke:#61AFEF;stroke-width:1.0;"/><text fill="#ABB2BF" font-family="-apple-system, BlinkMacSystemFont, 'Segoe UI', Roboto, 'Helvetica Neue', Arial, 'Noto Sans', sans-serif, 'Apple Color Emoji', 'Segoe UI Emoji', 'Segoe UI Symbol', 'Noto Color Emoji'" font-size="13" lengthAdjust="spacing" textLength="55" x="273" y="233.6494">&#171;include&#187;</text></g><!--link Start game to Load level--><g id="link_Start game_Load level"><path d="M214.94,226.7711 C265.97,214.3111 349.34,193.9511 401.59,181.2011 " fill="none" id="Start game-to-Load level" style="stroke:#61AFEF;stroke-width:1.0;stroke-dasharray:7.0,7.0;"/><polygon fill="#61AFEF" points="406.55,179.9911,396.8533,178.2665,401.6959,181.1903,398.7721,186.033,406.55,179.9911" style="stroke:#61AFEF;stroke-width:1.0;"/><text fill="#ABB2BF" font-family="-apple-system, BlinkMacSystemFont, 'Segoe UI', Roboto, 'Helvetica Neue', Arial, 'Noto Sans', sans-serif, 'Apple Color Emoji', 'Segoe UI Emoji', 'Segoe UI Symbol', 'Noto Color Emoji'" font-size="13" lengthAdjust="spacing" textLength="55" x="273" y="195.6494">&#171;include&#187;</text></g><!--link Random Level to Select configuration--><g id="link_Random Level_Select configuration"><path d="M514.03,108.4311 C557.67,113.8411 616.06,121.0711 662.75,126.8611 " fill="none" id="Random Level-to-Select configuration" style="stroke:#61AFEF;stroke-width:1.0;stroke-dasharray:7.0,7.0;"/><polygon fill="#61AFEF" points="667.81,127.4911,659.3702,122.4146,662.848,126.8762,658.3864,130.3539,667.81,127.4911" style="stroke:#61AFEF;stroke-width:1.0;"/><text fill="#ABB2BF" font-family="-apple-system, BlinkMacSystemFont, 'Segoe UI', Roboto, 'Helvetica Neue', Arial, 'Noto Sans', sans-serif, 'Apple Color Emoji', 'Segoe UI Emoji', 'Segoe UI Symbol', 'Noto Color Emoji'" font-size="13" lengthAdjust="spacing" textLength="55" x="572" y="112.6494">&#171;include&#187;</text></g><!--link Load level to Select configuration--><g id="link_Load level_Select configuration"><path d="M505.1,172.0711 C540.28,172.8311 587.05,172.2911 628,166.6211 C647.56,163.9111 668.57,158.9511 687.14,153.8411 " fill="none" id="Load level-to-Select configuration" style="stroke:#61AFEF;stroke-width:1.0;stroke-dasharray:7.0,7.0;"/><polygon fill="#61AFEF" points="692.3,152.4011,682.5562,150.9663,687.4838,153.7445,684.7056,158.6721,692.3,152.4011" style="stroke:#61AFEF;stroke-width:1.0;"/><text fill="#ABB2BF" font-family="-apple-system, BlinkMacSystemFont, 'Segoe UI', Roboto, 'Helvetica Neue', Arial, 'Noto Sans', sans-serif, 'Apple Color Emoji', 'Segoe UI Emoji', 'Segoe UI Symbol', 'Noto Color Emoji'" font-size="13" lengthAdjust="spacing" textLength="55" x="572" y="162.6494">&#171;include&#187;</text></g><!--link Select configuration to Levels--><g id="link_Select configuration_Levels"><path d="M827.23,136.6211 C849.1,136.6211 871.17,136.6211 887.77,136.6211 " fill="none" id="Select configuration-Levels" style="stroke:#61AFEF;stroke-width:1.0;"/></g><!--link Load game to File--><g id="link_Load game_File"><path d="M500.59,246.9011 C515.43,251.9411 530.53,259.7011 541,271.6211 C690.21,441.4511 516.19,590.5711 658,766.6211 C672.52,784.6511 697.12,795.0511 715.87,800.7011 " fill="none" id="Load game-File" style="stroke:#61AFEF;stroke-width:1.0;"/></g><!--link User to Settings--><g id="link_User_Settings"><path d="M34.09,425.7211 C56.16,419.1311 101.48,405.6111 133.37,396.1011 " fill="none" id="User-Settings" style="stroke:#61AFEF;stroke-width:1.0;"/></g><!--link Settings to Adjust Music Volume --><g id="link_Settings_Adjust Music Volume "><path d="M216.18,385.6211 C253.7,385.6211 308.09,385.6211 354.86,385.6211 " fill="none" id="Settings-to-Adjust Music Volume " style="stroke:#61AFEF;stroke-width:1.0;stroke-dasharray:7.0,7.0;"/><polygon fill="#61AFEF" points="359.94,385.6211,350.94,381.6211,354.94,385.6211,350.94,389.6211,359.94,385.6211" style="stroke:#61AFEF;stroke-width:1.0;"/><text fill="#ABB2BF" font-family="-apple-system, BlinkMacSystemFont, 'Segoe UI', Roboto, 'Helvetica Neue', Arial, 'Noto Sans', sans-serif, 'Apple Color Emoji', 'Segoe UI Emoji', 'Segoe UI Symbol', 'Noto Color Emoji'" font-size="13" lengthAdjust="spacing" textLength="55" x="273" y="381.6494">&#171;include&#187;</text></g><!--link Settings to Adjust Effects Volume --><g id="link_Settings_Adjust Effects Volume "><path d="M206.91,375.6811 C252.42,363.2611 331.05,341.8111 386.32,326.7211 " fill="none" id="Settings-to-Adjust Effects Volume " style="stroke:#61AFEF;stroke-width:1.0;stroke-dasharray:7.0,7.0;"/><polygon fill="#61AFEF" points="391.26,325.3811,381.5254,323.8852,386.4355,326.6943,383.6265,331.6044,391.26,325.3811" style="stroke:#61AFEF;stroke-width:1.0;"/><text fill="#ABB2BF" font-family="-apple-system, BlinkMacSystemFont, 'Segoe UI', Roboto, 'Helvetica Neue', Arial, 'Noto Sans', sans-serif, 'Apple Color Emoji', 'Segoe UI Emoji', 'Segoe UI Symbol', 'Noto Color Emoji'" font-size="13" lengthAdjust="spacing" textLength="55" x="273" y="339.6494">&#171;include&#187;</text></g><!--link User to Save game--><g id="link_User_Save game"><path d="M27.5,469.3811 C34.22,498.6911 47.49,537.6511 73,562.6211 C85.75,575.1011 103.3,583.1711 119.88,588.3911 " fill="none" id="User-Save game" style="stroke:#61AFEF;stroke-width:1.0;"/></g><!--link Save game to File--><g id="link_Save game_File"><path d="M208.81,610.1011 C220.54,615.3311 232.76,622.3911 242,631.6211 C263.94,653.5411 253.02,670.0911 272,694.6211 C302.89,734.5411 312.51,747.9711 359,767.6211 C484.12,820.5011 652.02,813.9511 715.62,809.0411 " fill="none" id="Save game-File" style="stroke:#61AFEF;stroke-width:1.0;"/></g><!--link User to Play the game--><g id="link_User_Play the game"><path d="M34.09,438.4111 C58.91,455.0611 113.13,491.4611 144.6,512.5811 " fill="none" id="User-Play the game" style="stroke:#61AFEF;stroke-width:1.0;"/></g><!--link Play the game to Move block--><g id="link_Play the game_Move block"><path d="M212.39,542.5011 C223.19,547.7211 234,554.6411 242,563.6211 C268.64,593.5411 246.5,617.7211 272,648.6211 C300.53,683.1911 318.56,680.3011 359,699.6211 C373.76,706.6711 390.4,713.3011 405.32,718.8011 " fill="none" id="Play the game-to-Move block" style="stroke:#61AFEF;stroke-width:1.0;stroke-dasharray:7.0,7.0;"/><polygon fill="#61AFEF" points="410.3,720.6311,403.2155,713.7893,405.6027,718.9178,400.4742,721.305,410.3,720.6311" style="stroke:#61AFEF;stroke-width:1.0;"/><text fill="#ABB2BF" font-family="-apple-system, BlinkMacSystemFont, 'Segoe UI', Roboto, 'Helvetica Neue', Arial, 'Noto Sans', sans-serif, 'Apple Color Emoji', 'Segoe UI Emoji', 'Segoe UI Symbol', 'Noto Color Emoji'" font-size="13" lengthAdjust="spacing" textLength="55" x="273" y="644.6494">&#171;include&#187;</text></g><!--link Play the game to Reset setup--><g id="link_Play the game_Reset setup"><path d="M206.94,543.2111 C218.68,548.7411 231.39,555.6511 242,563.6211 C257.85,575.5211 255.73,585.3011 272,596.6211 C306.22,620.4211 320.17,616.4811 359,631.6211 C375.08,637.8911 392.84,644.6411 408.3,650.4511 " fill="none" id="Play the game-to-Reset setup" style="stroke:#61AFEF;stroke-width:1.0;stroke-dasharray:7.0,7.0;"/><polygon fill="#61AFEF" points="413.02,652.2311,405.9975,645.3257,408.3384,650.4755,403.1885,652.8163,413.02,652.2311" style="stroke:#61AFEF;stroke-width:1.0;"/><text fill="#ABB2BF" font-family="-apple-system, BlinkMacSystemFont, 'Segoe UI', Roboto, 'Helvetica Neue', Arial, 'Noto Sans', sans-serif, 'Apple Color Emoji', 'Segoe UI Emoji', 'Segoe UI Symbol', 'Noto Color Emoji'" font-size="13" lengthAdjust="spacing" textLength="55" x="273" y="592.6494">&#171;include&#187;</text></g><!--link Play the game to Undo action--><g id="link_Play the game_Undo action"><path d="M217.43,541.3911 C234.57,545.9811 254.14,551.1311 272,555.6211 C313.45,566.0511 360.55,577.1911 395.73,585.3811 " fill="none" id="Play the game-to-Undo action" style="stroke:#61AFEF;stroke-width:1.0;stroke-dasharray:7.0,7.0;"/><polygon fill="#61AFEF" points="400.84,586.5611,392.975,580.6331,395.969,585.4326,391.1694,588.4266,400.84,586.5611" style="stroke:#61AFEF;stroke-width:1.0;"/><text fill="#ABB2BF" font-family="-apple-system, BlinkMacSystemFont, 'Segoe UI', Roboto, 'Helvetica Neue', Arial, 'Noto Sans', sans-serif, 'Apple Color Emoji', 'Segoe UI Emoji', 'Segoe UI Symbol', 'Noto Color Emoji'" font-size="13" lengthAdjust="spacing" textLength="55" x="273" y="551.6494">&#171;include&#187;</text></g><!--link Play the game to Next best action--><g id="link_Play the game_Next best action"><path d="M242.22,528.6211 C280.63,528.6211 328.08,528.6211 367.83,528.6211 " fill="none" id="Play the game-to-Next best action" style="stroke:#61AFEF;stroke-width:1.0;stroke-dasharray:7.0,7.0;"/><polygon fill="#61AFEF" points="373.14,528.6211,364.14,524.6211,368.14,528.6211,364.14,532.6211,373.14,528.6211" style="stroke:#61AFEF;stroke-width:1.0;"/><text fill="#ABB2BF" font-family="-apple-system, BlinkMacSystemFont, 'Segoe UI', Roboto, 'Helvetica Neue', Arial, 'Noto Sans', sans-serif, 'Apple Color Emoji', 'Segoe UI Emoji', 'Segoe UI Symbol', 'Noto Color Emoji'" font-size="13" lengthAdjust="spacing" textLength="55" x="273" y="524.6494">&#171;include&#187;</text></g><!--link Play the game to Moves counter--><g id="link_Play the game_Moves counter"><path d="M219.01,516.1211 C235.79,511.8111 254.72,506.9811 272,502.6211 C312.82,492.3211 358.99,480.8511 393.93,472.2011 " fill="none" id="Play the game-to-Moves counter" style="stroke:#61AFEF;stroke-width:1.0;stroke-dasharray:7.0,7.0;"/><polygon fill="#61AFEF" points="399,470.9511,389.3033,469.2265,394.1459,472.1503,391.2221,476.993,399,470.9511" style="stroke:#61AFEF;stroke-width:1.0;"/><text fill="#ABB2BF" font-family="-apple-system, BlinkMacSystemFont, 'Segoe UI', Roboto, 'Helvetica Neue', Arial, 'Noto Sans', sans-serif, 'Apple Color Emoji', 'Segoe UI Emoji', 'Segoe UI Symbol', 'Noto Color Emoji'" font-size="13" lengthAdjust="spacing" textLength="55" x="273" y="485.6494">&#171;include&#187;</text></g><!--link User to Exit the game--><g id="link_User_Exit the game"><path d="M20.68,469.3011 C22.45,514.1811 32.08,586.8411 73,631.6211 C83.45,643.0511 98,650.6411 112.59,655.6811 " fill="none" id="User-Exit the game" style="stroke:#61AFEF;stroke-width:1.0;"/></g><!--SRC=[ZLBBRi8m4BpxAxQSu00VW11IrLAf0jgAHozL3qko2MwT6CLhH5Nnxzqaj4qaWuYKABkU6OzdVQFpoFYOWBUKqM3dCwEKeOI1BHGwtJB4kg28jSsLOis6e3ETFQ-MqySXh1trxz2HWtkDQO5PHyc34TkYN2kK0eYHSICOUD32VPCEWCCzEVbx5tGfZddQq0NSxJhVBUwCzcGSLCrZ-IdLeT-7xihBPXfDhzLTCXOCAMPKzPir30PZw2umZsrMw_PW2AFHAOZnE8YVMOph-agiEQFSthZ2Byb81X3PFD6fBx3CEi1iobxDgmm6SH9JdQhw4w_F80lbgDfv4hFEKtTAyxUgVTp67zunpBtJ4RnQupE2KAP1rYH9n9mxnskPa5jpcYaqgw3Z5uDVvQN-9xGxjOcv5P6DiT5dm728i2173FBwtPMCjSmRC3epr13ZYGuC6v9mmhHBXt4oPfyp5PU2d1mqDx8vgXy0]--></g></svg>