<?xml version="1.0" encoding="us-ascii" standalone="no"?><svg xmlns="http://www.w3.org/2000/svg" xmlns:xlink="http://www.w3.org/1999/xlink" contentStyleType="text/css" height="865px" preserveAspectRatio="none" style="width:1016px;height:865px;background:#27262B;" version="1.1" viewBox="0 0 1016 865" width="1016px" zoomAndPan="magnify"><defs/><g><rect fill="#27262B" height="865" style="stroke:none;stroke-width:1.0;" width="1016" x="0" y="0"/><text fill="#ABB2BF" font-family="-apple-system, BlinkMacSystemFont, 'Segoe UI', Roboto, 'Helvetica Neue', Arial, 'Noto Sans', sans-serif, 'Apple Color Emoji', 'Segoe UI Emoji', 'Segoe UI Symbol', 'Noto Color Emoji'" font-size="14" font-weight="bold" lengthAdjust="spacing" textLength="196" x="403" y="24.9659">KLOTSKI: Use-Cases Diagram</text><!--cluster KLOTSKI app--><g id="cluster_KLOTSKI app"><rect fill="#424856" height="737" rx="2.5" ry="2.5" style="stroke:#ABB2BF;stroke-width:1.0;" width="926" x="84" y="47.0679"/><text fill="#ABB2BF" font-family="-apple-system, BlinkMacSystemFont, 'Segoe UI', Roboto, 'Helvetica Neue', Arial, 'Noto Sans', sans-serif, 'Apple Color Emoji', 'Segoe UI Emoji', 'Segoe UI Symbol', 'Noto Color Emoji'" font-size="14" font-weight="bold" lengthAdjust="spacing" textLength="87" x="503.5" y="64.0339">KLOTSKI app</text></g><g id="elem_Start game"><ellipse cx="177.151" cy="208.0698" fill="#424856" rx="66.151" ry="17.0018" style="stroke:#61AFEF;stroke-width:0.5;"/><text fill="#ABB2BF" font-family="-apple-system, BlinkMacSystemFont, 'Segoe UI', Roboto, 'Helvetica Neue', Arial, 'Noto Sans', sans-serif, 'Apple Color Emoji', 'Segoe UI Emoji', 'Segoe UI Symbol', 'Noto Color Emoji'" font-size="14" lengthAdjust="spacing" textLength="74" x="137.151" y="212.8027">Start game</text></g><g id="elem_Random Level"><ellipse cx="471.2218" cy="103.3123" fill="#424856" rx="76.7218" ry="17.7444" style="stroke:#61AFEF;stroke-width:0.5;"/><text fill="#ABB2BF" font-family="-apple-system, BlinkMacSystemFont, 'Segoe UI', Roboto, 'Helvetica Neue', Arial, 'Noto Sans', sans-serif, 'Apple Color Emoji', 'Segoe UI Emoji', 'Segoe UI Symbol', 'Noto Color Emoji'" font-size="14" lengthAdjust="spacing" textLength="94" x="421.2218" y="108.0452">Random Level</text></g><g id="elem_Load game"><ellipse cx="471.151" cy="242.0698" fill="#424856" rx="66.151" ry="17.0018" style="stroke:#61AFEF;stroke-width:0.5;"/><text fill="#ABB2BF" font-family="-apple-system, BlinkMacSystemFont, 'Segoe UI', Roboto, 'Helvetica Neue', Arial, 'Noto Sans', sans-serif, 'Apple Color Emoji', 'Segoe UI Emoji', 'Segoe UI Symbol', 'Noto Color Emoji'" font-size="14" lengthAdjust="spacing" textLength="74" x="431.151" y="246.8027">Load game</text></g><g id="elem_Load level"><ellipse cx="470.8565" cy="173.0325" fill="#424856" rx="60.8565" ry="16.9646" style="stroke:#61AFEF;stroke-width:0.5;"/><text fill="#ABB2BF" font-family="-apple-system, BlinkMacSystemFont, 'Segoe UI', Roboto, 'Helvetica Neue', Arial, 'Noto Sans', sans-serif, 'Apple Color Emoji', 'Segoe UI Emoji', 'Segoe UI Symbol', 'Noto Color Emoji'" font-size="14" lengthAdjust="spacing" textLength="67" x="434.3565" y="177.7655">Load level</text></g><g id="elem_Select configuration"><ellipse cx="779.9109" cy="138.8501" fill="#424856" rx="91.9109" ry="20.7822" style="stroke:#61AFEF;stroke-width:0.5;"/><text fill="#ABB2BF" font-family="-apple-system, BlinkMacSystemFont, 'Segoe UI', Roboto, 'Helvetica Neue', Arial, 'Noto Sans', sans-serif, 'Apple Color Emoji', 'Segoe UI Emoji', 'Segoe UI Symbol', 'Noto Color Emoji'" font-size="14" lengthAdjust="spacing" textLength="135" x="709.4109" y="143.5831">Select configuration</text></g><g id="elem_Settings"><ellipse cx="176.782" cy="394.9511" fill="#424856" rx="51.782" ry="16.8831" style="stroke:#61AFEF;stroke-width:0.5;"/><text fill="#ABB2BF" font-family="-apple-system, BlinkMacSystemFont, 'Segoe UI', Roboto, 'Helvetica Neue', Arial, 'Noto Sans', sans-serif, 'Apple Color Emoji', 'Segoe UI Emoji', 'Segoe UI Symbol', 'Noto Color Emoji'" font-size="14" lengthAdjust="spacing" textLength="55" x="146.282" y="399.684">Settings</text></g><g id="elem_Adjust Music Volume "><ellipse cx="470.9255" cy="395.153" fill="#424856" rx="95.9255" ry="21.5851" style="stroke:#61AFEF;stroke-width:0.5;"/><text fill="#ABB2BF" font-family="-apple-system, BlinkMacSystemFont, 'Segoe UI', Roboto, 'Helvetica Neue', Arial, 'Noto Sans', sans-serif, 'Apple Color Emoji', 'Segoe UI Emoji', 'Segoe UI Symbol', 'Noto Color Emoji'" font-size="14" lengthAdjust="spacing" textLength="141" x="395.4255" y="399.886">Adjust Music Volume</text></g><g id="elem_Adjust Effects Volume "><ellipse cx="470.9679" cy="316.0615" fill="#424856" rx="97.9679" ry="21.9936" style="stroke:#61AFEF;stroke-width:0.5;"/><text fill="#ABB2BF" font-family="-apple-system, BlinkMacSystemFont, 'Segoe UI', Roboto, 'Helvetica Neue', Arial, 'Noto Sans', sans-serif, 'Apple Color Emoji', 'Segoe UI Emoji', 'Segoe UI Symbol', 'Noto Color Emoji'" font-size="14" lengthAdjust="spacing" textLength="146" x="392.9679" y="320.7945">Adjust Effects Volume</text></g><g id="elem_Save game"><ellipse cx="176.8946" cy="652.0648" fill="#424856" rx="65.3946" ry="16.9969" style="stroke:#61AFEF;stroke-width:0.5;"/><text fill="#ABB2BF" font-family="-apple-system, BlinkMacSystemFont, 'Segoe UI', Roboto, 'Helvetica Neue', Arial, 'Noto Sans', sans-serif, 'Apple Color Emoji', 'Segoe UI Emoji', 'Segoe UI Symbol', 'Noto Color Emoji'" font-size="14" lengthAdjust="spacing" textLength="73" x="137.3946" y="656.7978">Save game</text></g><g id="elem_Play the game"><ellipse cx="177.0618" cy="581.8803" fill="#424856" rx="77.0618" ry="17.8124" style="stroke:#61AFEF;stroke-width:0.5;"/><text fill="#ABB2BF" font-family="-apple-system, BlinkMacSystemFont, 'Segoe UI', Roboto, 'Helvetica Neue', Arial, 'Noto Sans', sans-serif, 'Apple Color Emoji', 'Segoe UI Emoji', 'Segoe UI Symbol', 'Noto Color Emoji'" font-size="14" lengthAdjust="spacing" textLength="95" x="126.5618" y="586.6132">Play the game</text></g><g id="elem_Move block"><ellipse cx="470.9075" cy="751.0746" fill="#424856" rx="66.9075" ry="17.0067" style="stroke:#61AFEF;stroke-width:0.5;"/><text fill="#ABB2BF" font-family="-apple-system, BlinkMacSystemFont, 'Segoe UI', Roboto, 'Helvetica Neue', Arial, 'Noto Sans', sans-serif, 'Apple Color Emoji', 'Segoe UI Emoji', 'Segoe UI Symbol', 'Noto Color Emoji'" font-size="14" lengthAdjust="spacing" textLength="75" x="430.4075" y="755.8076">Move block</text></g><g id="elem_Reset setup"><ellipse cx="470.9332" cy="682.0929" fill="#424856" rx="69.9332" ry="17.025" style="stroke:#61AFEF;stroke-width:0.5;"/><text fill="#ABB2BF" font-family="-apple-system, BlinkMacSystemFont, 'Segoe UI', Roboto, 'Helvetica Neue', Arial, 'Noto Sans', sans-serif, 'Apple Color Emoji', 'Segoe UI Emoji', 'Segoe UI Symbol', 'Noto Color Emoji'" font-size="14" lengthAdjust="spacing" textLength="79" x="428.4332" y="686.8259">Reset setup</text></g><g id="elem_Undo action"><ellipse cx="470.9462" cy="613.1015" fill="#424856" rx="71.4462" ry="17.0336" style="stroke:#61AFEF;stroke-width:0.5;"/><text fill="#ABB2BF" font-family="-apple-system, BlinkMacSystemFont, 'Segoe UI', Roboto, 'Helvetica Neue', Arial, 'Noto Sans', sans-serif, 'Apple Color Emoji', 'Segoe UI Emoji', 'Segoe UI Symbol', 'Noto Color Emoji'" font-size="14" lengthAdjust="spacing" textLength="81" x="427.4462" y="617.8345">Undo action</text></g><g id="elem_Next best action"><ellipse cx="471.001" cy="541.8681" fill="#424856" rx="82.001" ry="18.8002" style="stroke:#61AFEF;stroke-width:0.5;"/><text fill="#ABB2BF" font-family="-apple-system, BlinkMacSystemFont, 'Segoe UI', Roboto, 'Helvetica Neue', Arial, 'Noto Sans', sans-serif, 'Apple Color Emoji', 'Segoe UI Emoji', 'Segoe UI Symbol', 'Noto Color Emoji'" font-size="14" lengthAdjust="spacing" textLength="109" x="413.501" y="546.6011">Next best action</text></g><g id="elem_Moves counter"><ellipse cx="470.9397" cy="470.1559" fill="#424856" rx="78.4397" ry="18.0879" style="stroke:#61AFEF;stroke-width:0.5;"/><text fill="#ABB2BF" font-family="-apple-system, BlinkMacSystemFont, 'Segoe UI', Roboto, 'Helvetica Neue', Arial, 'Noto Sans', sans-serif, 'Apple Color Emoji', 'Segoe UI Emoji', 'Segoe UI Symbol', 'Noto Color Emoji'" font-size="14" lengthAdjust="spacing" textLength="99" x="418.4397" y="474.8888">Moves counter</text></g><g id="elem_Exit the game"><ellipse cx="177.0473" cy="722.1774" fill="#424856" rx="76.0473" ry="17.6095" style="stroke:#61AFEF;stroke-width:0.5;"/><text fill="#ABB2BF" font-family="-apple-system, BlinkMacSystemFont, 'Segoe UI', Roboto, 'Helvetica Neue', Arial, 'Noto Sans', sans-serif, 'Apple Color Emoji', 'Segoe UI Emoji', 'Segoe UI Symbol', 'Noto Color Emoji'" font-size="14" lengthAdjust="spacing" textLength="92" x="128.0473" y="726.9103">Exit the game</text></g><!--entity Levels--><g id="elem_Levels"><path d="M933,125.0679 C933,115.0679 963.5,115.0679 963.5,115.0679 C963.5,115.0679 994,115.0679 994,125.0679 L994,153.1358 C994,163.1358 963.5,163.1358 963.5,163.1358 C963.5,163.1358 933,163.1358 933,153.1358 L933,125.0679 " fill="#424856" style="stroke:#61AFEF;stroke-width:0.5;"/><path d="M933,125.0679 C933,135.0679 963.5,135.0679 963.5,135.0679 C963.5,135.0679 994,135.0679 994,125.0679 " fill="none" style="stroke:#61AFEF;stroke-width:0.5;"/><text fill="#ABB2BF" font-family="-apple-system, BlinkMacSystemFont, 'Segoe UI', Roboto, 'Helvetica Neue', Arial, 'Noto Sans', sans-serif, 'Apple Color Emoji', 'Segoe UI Emoji', 'Segoe UI Symbol', 'Noto Color Emoji'" font-size="14" lengthAdjust="spacing" textLength="41" x="943" y="154.0339">Levels</text></g><!--entity User--><g id="elem_User"><ellipse cx="21.5" cy="510.0679" fill="#424856" rx="8" ry="8" style="stroke:#61AFEF;stroke-width:0.5;"/><path d="M21.5,518.0679 L21.5,545.0679 M8.5,526.0679 L34.5,526.0679 M21.5,545.0679 L8.5,560.0679 M21.5,545.0679 L34.5,560.0679 " fill="none" style="stroke:#61AFEF;stroke-width:0.5;"/><text fill="#ABB2BF" font-family="-apple-system, BlinkMacSystemFont, 'Segoe UI', Roboto, 'Helvetica Neue', Arial, 'Noto Sans', sans-serif, 'Apple Color Emoji', 'Segoe UI Emoji', 'Segoe UI Symbol', 'Noto Color Emoji'" font-size="14" lengthAdjust="spacing" textLength="31" x="6" y="576.5339">User</text></g><!--entity File--><g id="elem_File"><path d="M751.5,810.0679 C751.5,800.0679 780,800.0679 780,800.0679 C780,800.0679 808.5,800.0679 808.5,810.0679 L808.5,838.1358 C808.5,848.1358 780,848.1358 780,848.1358 C780,848.1358 751.5,848.1358 751.5,838.1358 L751.5,810.0679 " fill="#424856" style="stroke:#61AFEF;stroke-width:0.5;"/><path d="M751.5,810.0679 C751.5,820.0679 780,820.0679 780,820.0679 C780,820.0679 808.5,820.0679 808.5,810.0679 " fill="none" style="stroke:#61AFEF;stroke-width:0.5;"/><text fill="#ABB2BF" font-family="-apple-system, BlinkMacSystemFont, 'Segoe UI', Roboto, 'Helvetica Neue', Arial, 'Noto Sans', sans-serif, 'Apple Color Emoji', 'Segoe UI Emoji', 'Segoe UI Symbol', 'Noto Color Emoji'" font-size="14" lengthAdjust="spacing" textLength="37" x="761.5" y="839.0339">saves</text></g><!--link User to Start game--><g id="link_User_Start game"><path d="M30.68,501.3779 C39.22,463.8679 54.41,406.5779 76,360.0679 C100.47,307.3479 141.43,251.8879 162.53,224.8679 " fill="none" id="User-Start game" style="stroke:#61AFEF;stroke-width:1.0;"/></g><!--link Start game to Random Level--><g id="link_Start game_Random Level"><path d="M210.12,193.1079 C230.96,183.6579 258.83,171.4979 284,162.0679 C327.82,145.6579 378.49,129.7879 415.87,118.6379 " fill="none" id="Start game-to-Random Level" style="stroke:#61AFEF;stroke-width:1.0;stroke-dasharray:7.0,7.0;"/><polygon fill="#61AFEF" points="420.3,117.3279,410.5329,116.0614,415.5077,118.7542,412.8149,123.729,420.3,117.3279" style="stroke:#61AFEF;stroke-width:1.0;"/><text fill="#ABB2BF" font-family="-apple-system, BlinkMacSystemFont, 'Segoe UI', Roboto, 'Helvetica Neue', Arial, 'Noto Sans', sans-serif, 'Apple Color Emoji', 'Segoe UI Emoji', 'Segoe UI Symbol', 'Noto Color Emoji'" font-size="13" lengthAdjust="spacing" textLength="57" x="285" y="138.9649">&#171;include&#187;</text></g><!--link Start game to Load game--><g id="link_Start game_Load game"><path d="M217.24,221.7479 C237,227.9779 261.49,234.6979 284,238.0679 C321.74,243.7179 364.26,245.0079 399.11,244.7579 " fill="none" id="Start game-to-Load game" style="stroke:#61AFEF;stroke-width:1.0;stroke-dasharray:7.0,7.0;"/><polygon fill="#61AFEF" points="404.01,244.7079,394.976,240.7852,399.0102,244.7508,395.0446,248.7849,404.01,244.7079" style="stroke:#61AFEF;stroke-width:1.0;"/><text fill="#ABB2BF" font-family="-apple-system, BlinkMacSystemFont, 'Segoe UI', Roboto, 'Helvetica Neue', Arial, 'Noto Sans', sans-serif, 'Apple Color Emoji', 'Segoe UI Emoji', 'Segoe UI Symbol', 'Noto Color Emoji'" font-size="13" lengthAdjust="spacing" textLength="57" x="285" y="233.9649">&#171;include&#187;</text></g><!--link Start game to Load level--><g id="link_Start game_Load level"><path d="M237.44,200.9479 C287.18,194.9779 357.88,186.5079 408.25,180.4679 " fill="none" id="Start game-to-Load level" style="stroke:#61AFEF;stroke-width:1.0;stroke-dasharray:7.0,7.0;"/><polygon fill="#61AFEF" points="413.09,179.8879,403.6746,176.9983,408.1262,180.4887,404.6359,184.9404,413.09,179.8879" style="stroke:#61AFEF;stroke-width:1.0;"/><text fill="#ABB2BF" font-family="-apple-system, BlinkMacSystemFont, 'Segoe UI', Roboto, 'Helvetica Neue', Arial, 'Noto Sans', sans-serif, 'Apple Color Emoji', 'Segoe UI Emoji', 'Segoe UI Symbol', 'Noto Color Emoji'" font-size="13" lengthAdjust="spacing" textLength="57" x="285" y="184.9649">&#171;include&#187;</text></g><!--link Random Level to Select configuration--><g id="link_Random Level_Select configuration"><path d="M539.75,111.0079 C584.2,116.2279 642.76,123.0879 690.82,128.7279 " fill="none" id="Random Level-to-Select configuration" style="stroke:#61AFEF;stroke-width:1.0;stroke-dasharray:7.0,7.0;"/><polygon fill="#61AFEF" points="695.73,129.3079,687.2598,124.2823,690.7643,128.7229,686.3238,132.2274,695.73,129.3079" style="stroke:#61AFEF;stroke-width:1.0;"/><text fill="#ABB2BF" font-family="-apple-system, BlinkMacSystemFont, 'Segoe UI', Roboto, 'Helvetica Neue', Arial, 'Noto Sans', sans-serif, 'Apple Color Emoji', 'Segoe UI Emoji', 'Segoe UI Symbol', 'Noto Color Emoji'" font-size="13" lengthAdjust="spacing" textLength="57" x="600" y="114.9649">&#171;include&#187;</text></g><!--link Load level to Select configuration--><g id="link_Load level_Select configuration"><path d="M531.73,175.1279 C568.34,175.5679 616.06,174.6479 658,169.0679 C677.18,166.5179 697.72,162.0879 716.33,157.4079 " fill="none" id="Load level-to-Select configuration" style="stroke:#61AFEF;stroke-width:1.0;stroke-dasharray:7.0,7.0;"/><polygon fill="#61AFEF" points="721.09,156.1879,711.3827,154.5238,716.2435,157.4174,713.3499,162.2782,721.09,156.1879" style="stroke:#61AFEF;stroke-width:1.0;"/><text fill="#ABB2BF" font-family="-apple-system, BlinkMacSystemFont, 'Segoe UI', Roboto, 'Helvetica Neue', Arial, 'Noto Sans', sans-serif, 'Apple Color Emoji', 'Segoe UI Emoji', 'Segoe UI Symbol', 'Noto Color Emoji'" font-size="13" lengthAdjust="spacing" textLength="57" x="600" y="164.9649">&#171;include&#187;</text></g><!--link Select configuration to Levels--><g id="link_Select configuration_Levels"><path d="M872.28,139.0679 C894.17,139.0679 916.03,139.0679 932.74,139.0679 " fill="none" id="Select configuration-Levels" style="stroke:#61AFEF;stroke-width:1.0;"/></g><!--link Load game to File--><g id="link_Load game_File"><path d="M527.42,251.1779 C542.75,256.1979 558.15,263.9879 569,276.0679 C723.97,448.5779 539.79,605.7279 688,784.0679 C703.88,803.1779 730.69,813.4479 751.11,818.7779 " fill="none" id="Load game-File" style="stroke:#61AFEF;stroke-width:1.0;"/></g><!--link User to Settings--><g id="link_User_Settings"><path d="M37.5,526.8079 C66.16,499.5379 128.57,440.1779 158.85,411.3879 " fill="none" id="User-Settings" style="stroke:#61AFEF;stroke-width:1.0;"/></g><!--link Settings to Adjust Music Volume --><g id="link_Settings_Adjust Music Volume "><path d="M229.2,395.0679 C267.55,395.0679 321.27,395.0679 368.25,395.0679 " fill="none" id="Settings-to-Adjust Music Volume " style="stroke:#61AFEF;stroke-width:1.0;stroke-dasharray:7.0,7.0;"/><polygon fill="#61AFEF" points="373.02,395.0679,364.02,391.0679,368.02,395.0679,364.02,399.0679,373.02,395.0679" style="stroke:#61AFEF;stroke-width:1.0;"/><text fill="#ABB2BF" font-family="-apple-system, BlinkMacSystemFont, 'Segoe UI', Roboto, 'Helvetica Neue', Arial, 'Noto Sans', sans-serif, 'Apple Color Emoji', 'Segoe UI Emoji', 'Segoe UI Symbol', 'Noto Color Emoji'" font-size="13" lengthAdjust="spacing" textLength="57" x="285" y="390.9649">&#171;include&#187;</text></g><!--link Settings to Adjust Effects Volume --><g id="link_Settings_Adjust Effects Volume "><path d="M217.99,384.2479 C265.01,371.5279 343.85,350.1979 400.85,334.7779 " fill="none" id="Settings-to-Adjust Effects Volume " style="stroke:#61AFEF;stroke-width:1.0;stroke-dasharray:7.0,7.0;"/><polygon fill="#61AFEF" points="405.53,333.5079,395.7954,332.012,400.7055,334.8211,397.8965,339.7312,405.53,333.5079" style="stroke:#61AFEF;stroke-width:1.0;"/><text fill="#ABB2BF" font-family="-apple-system, BlinkMacSystemFont, 'Segoe UI', Roboto, 'Helvetica Neue', Arial, 'Noto Sans', sans-serif, 'Apple Color Emoji', 'Segoe UI Emoji', 'Segoe UI Symbol', 'Noto Color Emoji'" font-size="13" lengthAdjust="spacing" textLength="57" x="285" y="346.9649">&#171;include&#187;</text></g><!--link User to Save game--><g id="link_User_Save game"><path d="M37.33,570.4779 C46.56,586.2079 59.78,604.8079 76,617.0679 C90.53,628.0479 108.78,635.7679 125.69,641.1079 " fill="none" id="User-Save game" style="stroke:#61AFEF;stroke-width:1.0;"/></g><!--link Save game to File--><g id="link_Save game_File"><path d="M218.47,665.5379 C230.78,670.9279 243.75,678.0479 254,687.0679 C272.88,703.6879 265.8,717.6979 284,735.0679 C316.82,766.3879 329.71,771.4979 373,785.0679 C509.82,827.9679 684.22,827.3979 751.14,825.2879 " fill="none" id="Save game-File" style="stroke:#61AFEF;stroke-width:1.0;"/></g><!--link User to Play the game--><g id="link_User_Play the game"><path d="M37.5,545.0779 C57.64,550.4579 94.44,560.2879 125.05,568.4579 " fill="none" id="User-Play the game" style="stroke:#61AFEF;stroke-width:1.0;"/></g><!--link Play the game to Move block--><g id="link_Play the game_Move block"><path d="M224.2,596.6579 C235.02,601.7679 245.77,608.4479 254,617.0679 C278.51,642.7379 258.01,666.9079 284,691.0679 C316.2,720.9979 363.45,735.9979 402.27,743.5179 " fill="none" id="Play the game-to-Move block" style="stroke:#61AFEF;stroke-width:1.0;stroke-dasharray:7.0,7.0;"/><polygon fill="#61AFEF" points="406.94,744.3879,398.8206,738.8135,402.0239,743.4759,397.3614,746.6793,406.94,744.3879" style="stroke:#61AFEF;stroke-width:1.0;"/><text fill="#ABB2BF" font-family="-apple-system, BlinkMacSystemFont, 'Segoe UI', Roboto, 'Helvetica Neue', Arial, 'Noto Sans', sans-serif, 'Apple Color Emoji', 'Segoe UI Emoji', 'Segoe UI Symbol', 'Noto Color Emoji'" font-size="13" lengthAdjust="spacing" textLength="57" x="285" y="686.9649">&#171;include&#187;</text></g><!--link Play the game to Reset setup--><g id="link_Play the game_Reset setup"><path d="M217.3,597.7979 C229.42,603.2679 242.58,609.8579 254,617.0679 C268.68,626.3379 268.4,634.4679 284,642.0679 C319.79,659.4979 363.11,669.3879 398.93,674.9679 " fill="none" id="Play the game-to-Reset setup" style="stroke:#61AFEF;stroke-width:1.0;stroke-dasharray:7.0,7.0;"/><polygon fill="#61AFEF" points="403.58,675.6679,395.2744,670.3748,398.6355,674.9248,394.0855,678.2859,403.58,675.6679" style="stroke:#61AFEF;stroke-width:1.0;"/><text fill="#ABB2BF" font-family="-apple-system, BlinkMacSystemFont, 'Segoe UI', Roboto, 'Helvetica Neue', Arial, 'Noto Sans', sans-serif, 'Apple Color Emoji', 'Segoe UI Emoji', 'Segoe UI Symbol', 'Noto Color Emoji'" font-size="13" lengthAdjust="spacing" textLength="57" x="285" y="637.9649">&#171;include&#187;</text></g><!--link Play the game to Undo action--><g id="link_Play the game_Undo action"><path d="M223.68,596.7279 C242.2,601.9879 263.92,607.2979 284,610.0679 C319.99,615.0379 360.27,616.2179 394.12,615.9779 " fill="none" id="Play the game-to-Undo action" style="stroke:#61AFEF;stroke-width:1.0;stroke-dasharray:7.0,7.0;"/><polygon fill="#61AFEF" points="398.84,615.9379,389.806,612.0152,393.8402,615.9808,389.8746,620.0149,398.84,615.9379" style="stroke:#61AFEF;stroke-width:1.0;"/><text fill="#ABB2BF" font-family="-apple-system, BlinkMacSystemFont, 'Segoe UI', Roboto, 'Helvetica Neue', Arial, 'Noto Sans', sans-serif, 'Apple Color Emoji', 'Segoe UI Emoji', 'Segoe UI Symbol', 'Noto Color Emoji'" font-size="13" lengthAdjust="spacing" textLength="57" x="285" y="605.9649">&#171;include&#187;</text></g><!--link Play the game to Next best action--><g id="link_Play the game_Next best action"><path d="M244.26,572.9879 C288.45,566.9379 346.71,558.9579 392.97,552.6179 " fill="none" id="Play the game-to-Next best action" style="stroke:#61AFEF;stroke-width:1.0;stroke-dasharray:7.0,7.0;"/><polygon fill="#61AFEF" points="397.92,551.9379,388.4646,549.1821,392.9652,552.609,389.5383,557.1097,397.92,551.9379" style="stroke:#61AFEF;stroke-width:1.0;"/><text fill="#ABB2BF" font-family="-apple-system, BlinkMacSystemFont, 'Segoe UI', Roboto, 'Helvetica Neue', Arial, 'Noto Sans', sans-serif, 'Apple Color Emoji', 'Segoe UI Emoji', 'Segoe UI Symbol', 'Noto Color Emoji'" font-size="13" lengthAdjust="spacing" textLength="57" x="285" y="555.9649">&#171;include&#187;</text></g><!--link Play the game to Moves counter--><g id="link_Play the game_Moves counter"><path d="M211.02,565.6979 C231.74,555.7079 259.15,542.9879 284,533.0679 C328.03,515.4879 379.11,498.4179 416.59,486.4879 " fill="none" id="Play the game-to-Moves counter" style="stroke:#61AFEF;stroke-width:1.0;stroke-dasharray:7.0,7.0;"/><polygon fill="#61AFEF" points="421.04,485.0779,411.2507,483.9963,416.2756,486.5945,413.6773,491.6194,421.04,485.0779" style="stroke:#61AFEF;stroke-width:1.0;"/><text fill="#ABB2BF" font-family="-apple-system, BlinkMacSystemFont, 'Segoe UI', Roboto, 'Helvetica Neue', Arial, 'Noto Sans', sans-serif, 'Apple Color Emoji', 'Segoe UI Emoji', 'Segoe UI Symbol', 'Noto Color Emoji'" font-size="13" lengthAdjust="spacing" textLength="57" x="285" y="508.9649">&#171;include&#187;</text></g><!--link User to Exit the game--><g id="link_User_Exit the game"><path d="M27.79,580.8079 C34.06,613.1079 47.52,657.8179 76,686.0679 C87.53,697.5079 102.95,705.3279 118.22,710.6779 " fill="none" id="User-Exit the game" style="stroke:#61AFEF;stroke-width:1.0;"/></g><!--SRC=[ZLDDJy904BtlhnWvmG5-024ane_406f0l1WFGpijgziksPqI3F6_EqjHssGX7DfqPjzxVVEclT9bOggKWDTKq61J5KOfGna3Mt0wNpEasb72sfPAATPi23gJwTFBOl8mXAMd_Wrwyd2hCNTOT0I42LiNZfnI02aohWG2zrgeRz81yBWbBq_lWWxYMEODMS3DfhDNBVAKjcGyx4CJliCzw4E_3zq5esF8iQ1Uw3Th60p6q9rZcTgYbkZ144QZuz3ZSHG_jPZMzOLOSqAv_U83Va56veN4bfdEAuSXrmYpANinxs0mYfEOwW3LdtWzWno4jRJp96PTvlwOvczL-xXEFohFCAkyJk3LcgeWY6KQPTrbcPZpftWj4_A577SApIhg-DdWL_Y0_mdjJcrYPaLaPMpo6J4S8yp94uDSrUP2nbBs3PYSM6gCyKWxXXL9E77QkM6yhBagcTov8EzscXlPoA-ZVW00]--></g></svg>